<?xml version="1.0" encoding="utf-8"?>
<!-- Generator: Adobe Illustrator 21.0.0, SVG Export Plug-In . SVG Version: 6.00 Build 0)  -->
<svg version="1.1" id="Isolation_Mode" xmlns="http://www.w3.org/2000/svg" xmlns:xlink="http://www.w3.org/1999/xlink" x="0px"
	 y="0px" viewBox="0 0 1930 1008.6" style="enable-background:new 0 0 1930 1008.6;" xml:space="preserve">
<style type="text/css">
	.st0{fill-rule:evenodd;clip-rule:evenodd;fill:#FFFFFF;}
</style>
<g>
	<path class="st0" d="M1469.3,854.3c-39.1,0.1-117,5.4-155,11.4c-0.3,0-230.3,41.4-246.8,46.7c-120.4,38.5-352.3-33-460.3-89.9
		c-18.4-9.2-36.8-18.5-55.1-27.7c-20.8-9.9-75.3-50.2-96.3-67.5c-19.8-18.4-39.7-36.8-59.5-55.1c-15.8-18.2-8-17.9-59.2,12.3
		c-6,3.5-24.9,10.8-42,23.4c-56.4,32.5-112.9,64.9-169.3,97.4c-15,8.2-101.2,56.6-112.9,67.5c-4.4,4.1-13.8,32.3,10.8,42.2
		c68.8,27.7,312.7-226.2,342.1-167.5c17.9,35.7,56.8,56.4,92.7,73.1c211.2,97.9,390.7,213.3,629.9,171.4c56.9-10,89.9-12.4,148.1-32
		c80.7-27.1,162.7-49.5,246.4-64.5c37.7-6.8,257-3.6,314.7-4.3c32.4-0.4,60-9.4,87.8-24.4c7.3-4,29.9-13.3,34.4-21
		c-8.2-5.8-91.7,8.2-99.1,9.6C1769.7,864.9,1539.2,854.2,1469.3,854.3z"/>
	<path class="st0" d="M719.6,537.4c-0.6-6.8-1.9-30.9-4.2-35.5c-6-12.1-21.4,4.7-35.2-9.2c-23.7-24-36.6-88.4-36.8-123.7
		c-0.3-61.2,23.1-136.9,64.1-179c23.8-24.4,80.9-58.8,89.2-73.4c6.6-11.6,3.2-24.3,13.5-29.1c10.9,14.7,2.4,42.5,46.2,55.2
		c73.3,21.3,92,21.7,133,81.5c7,10.1,18.1,29.6,22.7,41.2c2.6,6.4,1.9,14.7,7.1,18.1c11.6-16,3.4-57.5-3.5-76.3
		c-17.2-46.7-72.3-107.3-120.2-124.7c-74.3-27-65.9-66.9-80.5-73.3c-5.9,5.7-6.1,18.9-15.2,31.8c-28.6,40.8-205.5,78.9-241.7,268.7
		c-15.6,81.9-0.1,187.3-11.2,223l-31.7,75.1c-12.4,26.3-51,76.2-30.8,100.1c16.7,19.8,133.4,36.5,148-4.4
		c10.5-29.3-38.8-125.3,2.2-157.6C655.7,529.3,688.3,538.5,719.6,537.4z"/>
	<path class="st0" d="M822.8,530.3l4.4-30.5c4.5-38.9-11.6-35.4,33.2-35.4c31,0,31.4,24.5,29.1,52.1
		C882.9,520,832.1,530.2,822.8,530.3L822.8,530.3z M756.1,455.5l2,200.8c84.4,1.2,51.4,10,62.5-48.4c1.7-9-0.5-9.5,6.3-15.7
		c15.7,2.6,136.2,93.7,164,90.7c10.9-1.2,22.2-6.8,29.3-13.3c7.2-6.6,4.8-26.1,4.4-38.4c-5.3-3.6-141.2-52-145.5-62.5
		c3.3-6.7,57.1-27.2,65.5-49.1c6.4-16.7,2.7-68.5-26.1-87.3c-21.1-13.7-38.3-22.7-63.4-23.2c-18.6-0.4-79.2,5.4-92.1,23.8
		C756.3,442.3,756.1,439.6,756.1,455.5z"/>
	<path class="st0" d="M1057.9,652.7c77.1,37.7,47.3-71.2,79.8-75.6c0.8,1.1,55.9,61.6,61.5,66.4c22.5,19.2,32.5,11.9,64.4-8.2
		c6.1-3.8,15.2-9.7,16.9-17.4c-18.9-13.2-88.6-40.3-106.2-67.8c-6.2-9.8-23.8-15.8,24.2-32.7l64.7-20.1c28.9-6.6,22.8-9.9,22.5-32.5
		c-0.2-17.3-2.6-32.8-11.4-43.7c-17.7,0.4-107,82.3-133.4,82.3c-8.1-19-4.2-74.1-8.1-82.4c-1.6-1.6-71.3-4.5-76.6,0.8
		c-18.2,18.4,24.3,49.4,12.7,133.3C1066.4,573.1,1057.1,638.1,1057.9,652.7z"/>
	<path class="st0" d="M325,893.7c16.2-2.1,104-29.3,127.5-35.6c2.5-0.7,4.4-0.8,6.6-1.5l5.3-2.5c4-2.9,2.7,0.2,3.1-4.5
		c-49.9-14.2-94.3-2-121.3-56l-2.8-8c-2.1-6.5-7-15.8-13.4-16.6c-4.1-0.5-12.4,6.1-19.1,9.6c-8,4.3-6.7,5.9-20,13.4l-40.5,28.7
		c-2.7,1.9-0.4,0.3-2.2,1.7c-23.3,18.2-52.5,35.2-73.9,54c-7.8,6.9-13,11.9,8.6,17.8C236.1,908.6,272.8,903.3,325,893.7z"/>
	<path class="st0" d="M707.9,776.4c-0.7-30,40.4-15.7,55.1-2.8c6,5.2,9.2,10,6.6,21.4c-0.8,3.7-2.8,6-4.8,8.5
		C749,821.9,708.3,792.3,707.9,776.4L707.9,776.4z M660.4,785.7c2.8,12,17.8,29.7,27.3,36.3c12.4,8.6,28.9,17.7,44.5,17.9
		c30,0.6,46-6.3,65.3-29.1c3.8-4.4,8.4-14.3,9.3-21.2c7.2-53.4-90.4-66.6-124-43.8C673.8,751.9,656.1,767.3,660.4,785.7z"/>
	<path class="st0" d="M1378.3,770c6.1,3.8,11.6,9,12,17c0.5,10.3-2.5,16.3-7.9,21.2C1342.4,844.6,1283.2,710.2,1378.3,770
		L1378.3,770z M1278.7,784.3c4.1,18.3,20.5,29.4,27.5,36.2c9,8.8,29.3,18.7,42.9,19.3c31.5,1.3,33.6-3.8,49.4-12.9
		c11.8-6.8,25.5-25.3,26.7-35.8c2.6-22.7-9-33.5-22.8-41.2c-27.1-15.1-72.5-23.7-100.2-4.3C1293.7,751.4,1274.9,767.6,1278.7,784.3z
		"/>
	<path class="st0" d="M1283.2,698.4c-7.2,0.4-22.7,6.6-29,9.8c-0.6,0.3-1.2,0.7-1.8,1c-4.3,2.7-2.4,2.7-9.9,5.5
		c-9.2,3.5-5.3,4.2-12.3,6.1c-13.5,5.3-27.1,10.6-40.6,15.9c-19.6,8.5-24-2.5-37.1-10.6c-7.3-4.7-14.6-9.5-21.9-14.2
		c-20.1-15.4-39.6-10.7-41.5,13.5c23.6,8.2,32.6,12.3,53.2,28.3c29.8,23.1,41.3,53.2,46.3,88.3c24.4-3,23.5-2,34.6-5
		c-2.6-18.5-12.3-59.1-11.8-74c5.7-3.7,11.4-7.5,17.1-11.2c6.7-3.8,11.7-5.5,19.2-8.9c26.6-11.9,31.5-7,47.3-10.3
		c0.3-10.5-1.5-11.1-5-18C1286.9,709,1285.5,703.4,1283.2,698.4z"/>
	<path class="st0" d="M923.4,813.6c-55.8,4.7-62.3-8.4-72.3-10.6c-5.6,3.6-11.6,12.8-11.2,23.1c27.7,9.1,41.4,13.2,74,13
		c20.3-0.1,61-5.1,62.1-24.1c1.7-30.3-100.4-53.3-102-70.4c24.9-10.5,22.5,31.2,72.2-1.5c-0.4-5.5-14-17.6-20.8-20.7
		c-24.9-11.5-91.5,2.2-93.2,23.4c-2.2,28.2,69.7,29.9,96,51C937,803.8,934.6,812.7,923.4,813.6z"/>
	<path class="st0" d="M1058.9,726.1l-50,1.7c-18.5,1.8-12.1,5.6-9.4,18.8c5.3,25.9,0.7,59.5-0.7,83.4c-0.5,8.1,2.6,7.1,11.1,6.6
		c10.3-0.7,20.9-2,31.7-3.2c10.5-1.2,19-3.9,29.7-5c1-19.8,2.4-78-0.6-95.4L1058.9,726.1z"/>
</g>
</svg>
